<?xml version="1.0" encoding="utf-8"?>
<!-- Generator: Adobe Illustrator 15.0.2, SVG Export Plug-In . SVG Version: 6.00 Build 0)  -->
<!DOCTYPE svg PUBLIC "-//W3C//DTD SVG 1.1//EN" "http://www.w3.org/Graphics/SVG/1.1/DTD/svg11.dtd">
<svg version="1.1" id="svg2" xmlns="http://www.w3.org/2000/svg" xmlns:xlink="http://www.w3.org/1999/xlink" x="0px" y="0px"
	 width="400px" height="300px" viewBox="0 0 400 300" enable-background="new 0 0 400 300" xml:space="preserve">
<path id="path1981" d="M169.702,266.01c40-31.26-37.238-44.91-13.5,3c5.182,10.459,55.5,36.51,55.5-40c0-57.5-35-130.5-35-159.5
	s23-44.5,23-6s-56.5,71.5-56.5,111.5c0,66.029,90.5,67.029,90.5,18c0-45.5-42.327-46.9-56-35.5c-19.514,16.27-12.443,47.9,10.5,50
	c-33.656-43.109,31.701-54.41,36-18c4.73,40.029-69.5,41.16-69.5-7.5c0-38.5,61.27-77.601,58.5-115.5c-4-54.691-39.86-71.599-44-5
	c-2.91,46.32,34.83,105.02,36.5,170.5C206.771,273.82,175.384,284.859,169.702,266.01z"/>
</svg>
